<?xml version="1.0" standalone="no"?><!DOCTYPE svg PUBLIC "-//W3C//DTD SVG 1.1//EN" "http://www.w3.org/Graphics/SVG/1.1/DTD/svg11.dtd"><svg class="icon" width="200px" height="200.00px" viewBox="0 0 1024 1024" version="1.1" xmlns="http://www.w3.org/2000/svg"><path fill="#67c23a" d="M512 0C228.266667 0 0 228.266667 0 512c0 283.733333 228.266667 512 512 512 283.733333 0 512-228.266667 512-512C1024 228.266667 795.733333 0 512 0zM832 384 492.8 723.2C469.333333 746.666667 426.666667 746.666667 403.2 723.2L192 512c0 0-32-32 0-64s64 0 64 0l192 192 320-320c0 0 32-32 64 0S832 384 832 384z" /></svg>